# xmcd
#
# Track frame offsets: 
#        150
#        9814
#        37268
#        61234
#        78555
#        97226
#        113130
#
# Disc length: 1882 seconds
#
# Revision: 0
# Processed by: cddbd v1.5.2PL0 Copyright (c) Steve Scherf et al.
# Submitted via: ExactAudioCopy v1.3
#
DISCID=54075807
DTITLE=Chicago Dime - Big City Blues
DYEAR=2017
DGENRE=Blues Rock
TTITLE0=Sidewalk #2
TTITLE1=Big City Blues
TTITLE2=Own Groove
TTITLE3=Comw Putaode (Come Outside)
TTITLE4=Everyday I Have The Blues
TTITLE5=Chicago Dime
TTITLE6=Last Call
EXTD=
EXTT0=
EXTT1=
EXTT2=
EXTT3=
EXTT4=
EXTT5=
EXTT6=
PLAYORDER=
